<?xml version="1.0" encoding="iso-8859-1"?>
<!-- Uploaded to: SVG Repo, www.svgrepo.com, Generator: SVG Repo Mixer Tools -->
<svg height="800px" width="800px" version="1.1" id="Layer_1" xmlns="http://www.w3.org/2000/svg" xmlns:xlink="http://www.w3.org/1999/xlink" 
	 viewBox="0 0 511.999 511.999" xml:space="preserve">
<path style="fill:#6E6057;" d="M411.825,467.29h-33.391c-9.223,0-16.696-7.473-16.696-16.696V350.421
	c0-9.223,7.473-16.696,16.696-16.696h33.391c9.223,0,16.584,7.473,16.584,16.696v100.173
	C428.409,459.817,421.048,467.29,411.825,467.29z"/>
<path style="fill:#615349;" d="M411.825,333.725H395.13V467.29h16.696c9.223,0,16.584-7.473,16.584-16.696V350.421
	C428.409,341.198,421.048,333.725,411.825,333.725z"/>
<path style="fill:#6E6057;" d="M133.565,467.29h-33.391c-9.223,0-16.696-7.473-16.696-16.696V350.421
	c0-9.223,7.473-16.696,16.696-16.696h33.391c9.223,0,16.584,7.473,16.584,16.696v100.173
	C150.15,459.817,142.788,467.29,133.565,467.29z"/>
<path style="fill:#615349;" d="M133.565,333.725H116.87V467.29h16.696c9.223,0,16.584-7.473,16.584-16.696V350.421
	C150.15,341.198,142.788,333.725,133.565,333.725z"/>
<path style="fill:#9DCA40;" d="M230.402,340.404l-63.444-84.592H66.782L3.338,340.404c-3.793,5.06-4.402,11.826-1.576,17.484
	c2.832,5.658,8.608,9.228,14.935,9.228h200.347c6.327,0,12.103-3.571,14.935-9.228C234.804,352.23,234.195,345.464,230.402,340.404z
	"/>
<path style="fill:#85BB04;" d="M166.958,255.812H116.87v111.304h100.173c6.327,0,12.103-3.571,14.935-9.228
	c2.826-5.658,2.217-12.424-1.576-17.484L166.958,255.812z"/>
<path style="fill:#9DCA40;" d="M213.706,240.241l-63.447-84.602H83.48l-63.447,84.602c-8.211,10.951-0.435,26.646,13.291,26.702
	h167.092C214.141,266.887,221.916,251.192,213.706,240.241z"/>
<path style="fill:#85BB04;" d="M150.26,155.639h-33.39v111.304h83.546c13.726-0.057,21.502-15.751,13.291-26.702L150.26,155.639z"/>
<g>
	<path style="fill:#9DCA40;" d="M461.912,467.29H50.088c-9.223,0-16.696-7.473-16.696-16.696s7.473-16.696,16.696-16.696h411.824
		c9.223,0,16.696,7.473,16.696,16.696S471.134,467.29,461.912,467.29z"/>
	<path style="fill:#9DCA40;" d="M183.652,166.769H50.088c-6.327,0-12.103-3.571-14.935-9.228
		c-2.826-5.658-2.217-12.424,1.576-17.484l66.782-89.038c6.315-8.413,20.402-8.413,26.717,0l66.782,89.038
		c3.793,5.06,4.402,11.826,1.576,17.484C195.755,163.199,189.978,166.769,183.652,166.769z"/>
</g>
<g>
	<path style="fill:#85BB04;" d="M183.652,166.769c6.327,0,12.103-3.571,14.935-9.228c2.826-5.658,2.217-12.424-1.576-17.484
		L130.229,51.02c-3.158-4.206-8.258-6.31-13.359-6.31v122.059H183.652z"/>
	<path style="fill:#85BB04;" d="M461.912,433.898H256v33.391h205.912c9.223,0,16.696-7.473,16.696-16.696
		S471.134,433.898,461.912,433.898z"/>
</g>
<path style="fill:#9DCA40;" d="M508.662,340.404l-63.444-84.592H345.042l-63.444,84.592c-3.793,5.06-4.402,11.826-1.576,17.484
	c2.832,5.658,8.608,9.228,14.935,9.228h200.347c6.327,0,12.103-3.571,14.935-9.228C513.064,352.23,512.455,345.464,508.662,340.404z
	"/>
<path style="fill:#85BB04;" d="M445.217,255.812H395.13v111.304h100.173c6.327,0,12.103-3.571,14.935-9.228
	c2.826-5.658,2.217-12.424-1.576-17.484L445.217,255.812z"/>
<path style="fill:#9DCA40;" d="M491.966,240.241l-63.447-84.602h-66.78l-63.447,84.602c-8.211,10.951-0.435,26.646,13.291,26.702
	h167.092C492.4,266.887,500.176,251.192,491.966,240.241z"/>
<path style="fill:#85BB04;" d="M428.52,155.639h-33.39v111.304h83.546c13.726-0.057,21.502-15.751,13.291-26.702L428.52,155.639z"/>
<path style="fill:#9DCA40;" d="M461.912,166.769H328.347c-6.326,0-12.103-3.571-14.935-9.228
	c-2.826-5.658-2.217-12.424,1.576-17.484l66.782-89.038c6.315-8.413,20.402-8.413,26.717,0l66.782,89.038
	c3.793,5.06,4.402,11.826,1.576,17.484C474.015,163.199,468.237,166.769,461.912,166.769z"/>
<path style="fill:#85BB04;" d="M461.912,166.769c6.327,0,12.103-3.571,14.935-9.228c2.826-5.658,2.217-12.424-1.576-17.484
	L408.488,51.02c-3.158-4.206-8.258-6.31-13.359-6.31v122.059H461.912z"/>
</svg>